<?xml version="1.0" encoding="us-ascii" standalone="no"?><svg xmlns="http://www.w3.org/2000/svg" xmlns:xlink="http://www.w3.org/1999/xlink" contentStyleType="text/css" height="782px" preserveAspectRatio="none" style="width:1302px;height:782px;background:#FFFFFF;" version="1.1" viewBox="0 0 1302 782" width="1302px" zoomAndPan="magnify"><defs/><g><ellipse cx="487.5" cy="20" fill="#222222" rx="10" ry="10" style="stroke:#222222;stroke-width:1.0;"/><rect fill="#F1F1F1" height="33.9688" rx="12.5" ry="12.5" style="stroke:#181818;stroke-width:0.5;" width="195" x="390" y="50"/><text fill="#000000" font-family="sans-serif" font-size="12" lengthAdjust="spacing" textLength="175" x="400" y="71.1387">Inicializar comunica&#231;&#227;o serial</text><rect fill="#F1F1F1" height="33.9688" rx="12.5" ry="12.5" style="stroke:#181818;stroke-width:0.5;" width="259" x="358" y="103.9688"/><text fill="#000000" font-family="sans-serif" font-size="12" lengthAdjust="spacing" textLength="239" x="368" y="125.1074">Configurar pino do bot&#227;o como entrada</text><rect fill="#F1F1F1" height="33.9688" rx="12.5" ry="12.5" style="stroke:#181818;stroke-width:0.5;" width="175" x="400" y="201.9375"/><text fill="#000000" font-family="sans-serif" font-size="12" lengthAdjust="spacing" textLength="155" x="410" y="223.0762">Verificar estado do bot&#227;o</text><rect fill="#F1F1F1" height="33.9688" rx="12.5" ry="12.5" style="stroke:#181818;stroke-width:0.5;" width="199" x="388" y="304.3086"/><text fill="#000000" font-family="sans-serif" font-size="12" lengthAdjust="spacing" textLength="179" x="398" y="325.4473">Realizar medi&#231;&#227;o da dist&#226;ncia</text><polygon fill="#F1F1F1" points="445,358.2773,530,358.2773,542,370.2773,530,382.2773,445,382.2773,433,370.2773,445,358.2773" style="stroke:#181818;stroke-width:0.5;"/><text fill="#000000" font-family="sans-serif" font-size="11" lengthAdjust="spacing" textLength="85" x="445" y="374.0854">Dist&#226;ncia == 0</text><text fill="#000000" font-family="sans-serif" font-size="11" lengthAdjust="spacing" textLength="22" x="411" y="367.6831">Erro</text><rect fill="#F1F1F1" height="33.9688" rx="12.5" ry="12.5" style="stroke:#181818;stroke-width:0.5;" width="337" x="11" y="392.2773"/><text fill="#000000" font-family="sans-serif" font-size="12" lengthAdjust="spacing" textLength="317" x="21" y="413.416">Imprimir "Erro na medi&#231;&#227;o. Dist&#226;ncia n&#227;o detectada."</text><rect fill="#F1F1F1" height="33.9688" rx="12.5" ry="12.5" style="stroke:#181818;stroke-width:0.5;" width="214" x="695.5" y="392.2773"/><text fill="#000000" font-family="sans-serif" font-size="12" lengthAdjust="spacing" textLength="194" x="705.5" y="413.416">"Dist&#226;ncia: " + Dist&#226;ncia + " cm"</text><polygon fill="#F1F1F1" points="432,446.8281,515,446.8281,527,458.8281,515,470.8281,432,470.8281,420,458.8281,432,446.8281" style="stroke:#181818;stroke-width:0.5;"/><text fill="#000000" font-family="sans-serif" font-size="11" lengthAdjust="spacing" textLength="45" x="477.5" y="481.0386">Pr&#243;ximo</text><text fill="#000000" font-family="sans-serif" font-size="11" lengthAdjust="spacing" textLength="83" x="432" y="462.6362">Dist&#226;ncia &lt; 10</text><rect fill="#F1F1F1" height="33.9688" rx="12.5" ry="12.5" style="stroke:#181818;stroke-width:0.5;" width="225" x="361" y="503.6328"/><text fill="#000000" font-family="sans-serif" font-size="12" lengthAdjust="spacing" textLength="205" x="371" y="524.7715">"Cuidado! Objeto muito pr&#243;ximo!"</text><polygon fill="#F1F1F1" points="697,446.8281,780,446.8281,792,458.8281,780,470.8281,697,470.8281,685,458.8281,697,446.8281" style="stroke:#181818;stroke-width:0.5;"/><text fill="#000000" font-family="sans-serif" font-size="11" lengthAdjust="spacing" textLength="74" x="742.5" y="481.0386">Aproxima&#231;&#227;o</text><text fill="#000000" font-family="sans-serif" font-size="11" lengthAdjust="spacing" textLength="83" x="697" y="462.6362">Dist&#226;ncia &lt; 30</text><text fill="#000000" font-family="sans-serif" font-size="11" lengthAdjust="spacing" textLength="41" x="792" y="456.2339">Seguro</text><rect fill="#F1F1F1" height="33.9688" rx="12.5" ry="12.5" style="stroke:#181818;stroke-width:0.5;" width="265" x="606" y="503.6328"/><text fill="#000000" font-family="sans-serif" font-size="12" lengthAdjust="spacing" textLength="245" x="616" y="524.7715">"Parece que algo est&#225; se aproximando!"</text><rect fill="#F1F1F1" height="33.9688" rx="12.5" ry="12.5" style="stroke:#181818;stroke-width:0.5;" width="353" x="891" y="500.2305"/><text fill="#000000" font-family="sans-serif" font-size="12" lengthAdjust="spacing" textLength="333" x="901" y="521.3691">"Dist&#226;ncia segura. Nenhum objeto pr&#243;ximo detectado!"</text><polygon fill="#F1F1F1" points="487.5,563.6016,499.5,575.6016,487.5,587.6016,475.5,575.6016,487.5,563.6016" style="stroke:#181818;stroke-width:0.5;"/><polygon fill="#F1F1F1" points="431.5,255.9063,543.5,255.9063,555.5,267.9063,543.5,279.9063,431.5,279.9063,419.5,267.9063,431.5,255.9063" style="stroke:#181818;stroke-width:0.5;"/><text fill="#000000" font-family="sans-serif" font-size="11" lengthAdjust="spacing" textLength="22" x="491.5" y="290.1167">Sim</text><text fill="#000000" font-family="sans-serif" font-size="11" lengthAdjust="spacing" textLength="112" x="431.5" y="271.7144">Bot&#227;o pressionado?</text><polygon fill="#F1F1F1" points="487.5,607.6016,499.5,619.6016,487.5,631.6016,475.5,619.6016,487.5,607.6016" style="stroke:#181818;stroke-width:0.5;"/><rect fill="#F1F1F1" height="33.9688" rx="12.5" ry="12.5" style="stroke:#181818;stroke-width:0.5;" width="194" x="390.5" y="651.6016"/><text fill="#000000" font-family="sans-serif" font-size="12" lengthAdjust="spacing" textLength="174" x="400.5" y="672.7402">Aguardar intervalo de tempo</text><polygon fill="#F1F1F1" points="487.5,157.9375,499.5,169.9375,487.5,181.9375,475.5,169.9375,487.5,157.9375" style="stroke:#181818;stroke-width:0.5;"/><polygon fill="#F1F1F1" points="475.5,705.5703,499.5,705.5703,511.5,717.5703,499.5,729.5703,475.5,729.5703,463.5,717.5703,475.5,705.5703" style="stroke:#181818;stroke-width:0.5;"/><text fill="#000000" font-family="sans-serif" font-size="11" lengthAdjust="spacing" textLength="23" x="476" y="721.3784">true</text><ellipse cx="487.5" cy="760.5703" fill="none" rx="11" ry="11" style="stroke:#222222;stroke-width:1.0;"/><ellipse cx="487.5" cy="760.5703" fill="#222222" rx="6" ry="6" style="stroke:#111111;stroke-width:1.0;"/><line style="stroke:#181818;stroke-width:1.0;" x1="487.5" x2="487.5" y1="30" y2="50"/><polygon fill="#181818" points="483.5,40,487.5,50,491.5,40,487.5,44" style="stroke:#181818;stroke-width:1.0;"/><line style="stroke:#181818;stroke-width:1.0;" x1="487.5" x2="487.5" y1="83.9688" y2="103.9688"/><polygon fill="#181818" points="483.5,93.9688,487.5,103.9688,491.5,93.9688,487.5,97.9688" style="stroke:#181818;stroke-width:1.0;"/><line style="stroke:#181818;stroke-width:1.0;" x1="473.5" x2="473.5" y1="470.8281" y2="503.6328"/><polygon fill="#181818" points="469.5,493.6328,473.5,503.6328,477.5,493.6328,473.5,497.6328" style="stroke:#181818;stroke-width:1.0;"/><line style="stroke:#181818;stroke-width:1.0;" x1="473.5" x2="473.5" y1="537.6016" y2="557.6016"/><polygon fill="#181818" points="469.5,547.6016,473.5,557.6016,477.5,547.6016,473.5,551.6016" style="stroke:#181818;stroke-width:1.0;"/><line style="stroke:#181818;stroke-width:1.0;" x1="738.5" x2="738.5" y1="470.8281" y2="503.6328"/><polygon fill="#181818" points="734.5,493.6328,738.5,503.6328,742.5,493.6328,738.5,497.6328" style="stroke:#181818;stroke-width:1.0;"/><line style="stroke:#181818;stroke-width:1.0;" x1="738.5" x2="738.5" y1="537.6016" y2="557.6016"/><polygon fill="#181818" points="734.5,547.6016,738.5,557.6016,742.5,547.6016,738.5,551.6016" style="stroke:#181818;stroke-width:1.0;"/><line style="stroke:#181818;stroke-width:1.0;" x1="527" x2="685" y1="458.8281" y2="458.8281"/><polygon fill="#181818" points="675,454.8281,685,458.8281,675,462.8281,679,458.8281" style="stroke:#181818;stroke-width:1.0;"/><line style="stroke:#181818;stroke-width:1.0;" x1="802.5" x2="802.5" y1="426.2461" y2="431.2461"/><line style="stroke:#181818;stroke-width:1.0;" x1="802.5" x2="473.5" y1="431.2461" y2="431.2461"/><line style="stroke:#181818;stroke-width:1.0;" x1="473.5" x2="473.5" y1="431.2461" y2="446.8281"/><polygon fill="#181818" points="469.5,436.8281,473.5,446.8281,477.5,436.8281,473.5,440.8281" style="stroke:#181818;stroke-width:1.0;"/><line style="stroke:#181818;stroke-width:1.0;" x1="792" x2="1067.5" y1="458.8281" y2="458.8281"/><line style="stroke:#181818;stroke-width:1.0;" x1="1067.5" x2="1067.5" y1="458.8281" y2="500.2305"/><polygon fill="#181818" points="1063.5,490.2305,1067.5,500.2305,1071.5,490.2305,1067.5,494.2305" style="stroke:#181818;stroke-width:1.0;"/><line style="stroke:#181818;stroke-width:1.0;" x1="1067.5" x2="1067.5" y1="534.1992" y2="557.6016"/><polygon fill="#181818" points="1063.5,547.6016,1067.5,557.6016,1071.5,547.6016,1067.5,551.6016" style="stroke:#181818;stroke-width:1.0;"/><line style="stroke:#181818;stroke-width:1.0;" x1="473.5" x2="1067.5" y1="557.6016" y2="557.6016"/><line style="stroke:#181818;stroke-width:1.0;" x1="433" x2="179.5" y1="370.2773" y2="370.2773"/><line style="stroke:#181818;stroke-width:1.0;" x1="179.5" x2="179.5" y1="370.2773" y2="392.2773"/><polygon fill="#181818" points="175.5,382.2773,179.5,392.2773,183.5,382.2773,179.5,386.2773" style="stroke:#181818;stroke-width:1.0;"/><line style="stroke:#181818;stroke-width:1.0;" x1="542" x2="802.5" y1="370.2773" y2="370.2773"/><line style="stroke:#181818;stroke-width:1.0;" x1="802.5" x2="802.5" y1="370.2773" y2="392.2773"/><polygon fill="#181818" points="798.5,382.2773,802.5,392.2773,806.5,382.2773,802.5,386.2773" style="stroke:#181818;stroke-width:1.0;"/><line style="stroke:#181818;stroke-width:1.0;" x1="179.5" x2="179.5" y1="426.2461" y2="575.6016"/><line style="stroke:#181818;stroke-width:1.0;" x1="179.5" x2="475.5" y1="575.6016" y2="575.6016"/><polygon fill="#181818" points="465.5,571.6016,475.5,575.6016,465.5,579.6016,469.5,575.6016" style="stroke:#181818;stroke-width:1.0;"/><line style="stroke:#181818;stroke-width:1.0;" x1="802.5" x2="802.5" y1="557.6016" y2="575.6016"/><line style="stroke:#181818;stroke-width:1.0;" x1="802.5" x2="499.5" y1="575.6016" y2="575.6016"/><polygon fill="#181818" points="509.5,571.6016,499.5,575.6016,509.5,579.6016,505.5,575.6016" style="stroke:#181818;stroke-width:1.0;"/><line style="stroke:#181818;stroke-width:1.0;" x1="487.5" x2="487.5" y1="338.2773" y2="358.2773"/><polygon fill="#181818" points="483.5,348.2773,487.5,358.2773,491.5,348.2773,487.5,352.2773" style="stroke:#181818;stroke-width:1.0;"/><line style="stroke:#181818;stroke-width:1.0;" x1="487.5" x2="487.5" y1="279.9063" y2="304.3086"/><polygon fill="#181818" points="483.5,294.3086,487.5,304.3086,491.5,294.3086,487.5,298.3086" style="stroke:#181818;stroke-width:1.0;"/><line style="stroke:#181818;stroke-width:1.0;" x1="555.5" x2="1258" y1="267.9063" y2="267.9063"/><polygon fill="#181818" points="1254,436.2461,1258,446.2461,1262,436.2461,1258,440.2461" style="stroke:#181818;stroke-width:1.0;"/><line style="stroke:#181818;stroke-width:1.0;" x1="1258" x2="1258" y1="267.9063" y2="619.6016"/><line style="stroke:#181818;stroke-width:1.0;" x1="1258" x2="499.5" y1="619.6016" y2="619.6016"/><polygon fill="#181818" points="509.5,615.6016,499.5,619.6016,509.5,623.6016,505.5,619.6016" style="stroke:#181818;stroke-width:1.0;"/><line style="stroke:#181818;stroke-width:1.0;" x1="487.5" x2="487.5" y1="587.6016" y2="607.6016"/><polygon fill="#181818" points="483.5,597.6016,487.5,607.6016,491.5,597.6016,487.5,601.6016" style="stroke:#181818;stroke-width:1.0;"/><line style="stroke:#181818;stroke-width:1.0;" x1="487.5" x2="487.5" y1="235.9063" y2="255.9063"/><polygon fill="#181818" points="483.5,245.9063,487.5,255.9063,491.5,245.9063,487.5,249.9063" style="stroke:#181818;stroke-width:1.0;"/><line style="stroke:#181818;stroke-width:1.0;" x1="487.5" x2="487.5" y1="631.6016" y2="651.6016"/><polygon fill="#181818" points="483.5,641.6016,487.5,651.6016,491.5,641.6016,487.5,645.6016" style="stroke:#181818;stroke-width:1.0;"/><line style="stroke:#181818;stroke-width:1.0;" x1="487.5" x2="487.5" y1="181.9375" y2="201.9375"/><polygon fill="#181818" points="483.5,191.9375,487.5,201.9375,491.5,191.9375,487.5,195.9375" style="stroke:#181818;stroke-width:1.0;"/><line style="stroke:#181818;stroke-width:1.0;" x1="511.5" x2="1276" y1="717.5703" y2="717.5703"/><polygon fill="#181818" points="1272,456.2461,1276,446.2461,1280,456.2461,1276,452.2461" style="stroke:#181818;stroke-width:1.0;"/><line style="stroke:#181818;stroke-width:1.0;" x1="1276" x2="1276" y1="169.9375" y2="717.5703"/><line style="stroke:#181818;stroke-width:1.0;" x1="1276" x2="499.5" y1="169.9375" y2="169.9375"/><polygon fill="#181818" points="509.5,165.9375,499.5,169.9375,509.5,173.9375,505.5,169.9375" style="stroke:#181818;stroke-width:1.0;"/><line style="stroke:#181818;stroke-width:1.0;" x1="487.5" x2="487.5" y1="685.5703" y2="705.5703"/><polygon fill="#181818" points="483.5,695.5703,487.5,705.5703,491.5,695.5703,487.5,699.5703" style="stroke:#181818;stroke-width:1.0;"/><line style="stroke:#181818;stroke-width:1.0;" x1="487.5" x2="487.5" y1="137.9375" y2="157.9375"/><polygon fill="#181818" points="483.5,147.9375,487.5,157.9375,491.5,147.9375,487.5,151.9375" style="stroke:#181818;stroke-width:1.0;"/><line style="stroke:#181818;stroke-width:1.0;" x1="487.5" x2="487.5" y1="729.5703" y2="749.5703"/><polygon fill="#181818" points="483.5,739.5703,487.5,749.5703,491.5,739.5703,487.5,743.5703" style="stroke:#181818;stroke-width:1.0;"/><!--SRC=[PP9DJiD038NtEONfYWgf0h5BGOY_1Hj08B5tCqvhb9a9dWaWRWCiE017oCNmD4qQO9N4Vk_pavqGKMAMNpak62j-Gu72sqO_iVrgFpq44ctCi_pSkvANZQYYPkV1U5Zuc2Hgy40k2XgSPq8rOSm0yWUrbWeIe13HZ2npRNC9ksSTe1OAWRrJpSaKueeSxDwpdQfACNUq2MR9S1VA81WEiVrmcdg-bYNSnL23usFOxr6N8hvZAUtAriAM1IQf30wts1cC06uzXo8L6XrdasuALO5wqcIhpc42UsFtdXOAkp7z2tS41qEuMsc_NzaE0HFul66ZkzY1cyKZHG-suPYsr2bt1cnAymzzEA1FQ_5gw0uvvj-YK47mr11WjVJfFEsxNXfmut3cpnIz1-djVr56KqDguWokoQqQ2xwBtGSUrZY6EiDbDdxhd_dfia4nUczsaUGPgmI0IBRs_Ty5BokkD5IKXgPPYBx-0G00]--></g></svg>