<?xml version="1.0" encoding="us-ascii" standalone="no"?><svg xmlns="http://www.w3.org/2000/svg" xmlns:xlink="http://www.w3.org/1999/xlink" contentStyleType="text/css" height="581px" preserveAspectRatio="none" style="width:1277px;height:581px;background:#FFFFFF;" version="1.1" viewBox="0 0 1277 581" width="1277px" zoomAndPan="magnify"><defs/><g><ellipse cx="485.5" cy="20" fill="#222222" rx="10" ry="10" style="stroke:#222222;stroke-width:1.0;"/><rect fill="#F1F1F1" height="33.9688" rx="12.5" ry="12.5" style="stroke:#181818;stroke-width:0.5;" width="195" x="388" y="50"/><text fill="#000000" font-family="sans-serif" font-size="12" lengthAdjust="spacing" textLength="175" x="398" y="71.1387">Inicializar comunica&#231;&#227;o serial</text><rect fill="#F1F1F1" height="33.9688" rx="12.5" ry="12.5" style="stroke:#181818;stroke-width:0.5;" width="199" x="386" y="147.9688"/><text fill="#000000" font-family="sans-serif" font-size="12" lengthAdjust="spacing" textLength="179" x="396" y="169.1074">Realizar medi&#231;&#227;o da dist&#226;ncia</text><polygon fill="#F1F1F1" points="443,201.9375,528,201.9375,540,213.9375,528,225.9375,443,225.9375,431,213.9375,443,201.9375" style="stroke:#181818;stroke-width:0.5;"/><text fill="#000000" font-family="sans-serif" font-size="11" lengthAdjust="spacing" textLength="85" x="443" y="217.7456">Dist&#226;ncia == 0</text><text fill="#000000" font-family="sans-serif" font-size="11" lengthAdjust="spacing" textLength="22" x="409" y="211.3433">Erro</text><rect fill="#F1F1F1" height="33.9688" rx="12.5" ry="12.5" style="stroke:#181818;stroke-width:0.5;" width="337" x="11" y="235.9375"/><text fill="#000000" font-family="sans-serif" font-size="12" lengthAdjust="spacing" textLength="317" x="21" y="257.0762">Imprimir "Erro na medi&#231;&#227;o. Dist&#226;ncia n&#227;o detectada."</text><rect fill="#F1F1F1" height="33.9688" rx="12.5" ry="12.5" style="stroke:#181818;stroke-width:0.5;" width="214" x="686.5" y="235.9375"/><text fill="#000000" font-family="sans-serif" font-size="12" lengthAdjust="spacing" textLength="194" x="696.5" y="257.0762">"Dist&#226;ncia: " + Dist&#226;ncia + " cm"</text><polygon fill="#F1F1F1" points="429,289.9063,512,289.9063,524,301.9063,512,313.9063,429,313.9063,417,301.9063,429,289.9063" style="stroke:#181818;stroke-width:0.5;"/><text fill="#000000" font-family="sans-serif" font-size="11" lengthAdjust="spacing" textLength="45" x="474.5" y="324.1167">Pr&#243;ximo</text><text fill="#000000" font-family="sans-serif" font-size="11" lengthAdjust="spacing" textLength="83" x="429" y="305.7144">Dist&#226;ncia &lt; 10</text><rect fill="#F1F1F1" height="33.9688" rx="12.5" ry="12.5" style="stroke:#181818;stroke-width:0.5;" width="225" x="358" y="346.7109"/><text fill="#000000" font-family="sans-serif" font-size="12" lengthAdjust="spacing" textLength="205" x="368" y="367.8496">"Cuidado! Objeto muito pr&#243;ximo!"</text><polygon fill="#F1F1F1" points="688,289.9063,771,289.9063,783,301.9063,771,313.9063,688,313.9063,676,301.9063,688,289.9063" style="stroke:#181818;stroke-width:0.5;"/><text fill="#000000" font-family="sans-serif" font-size="11" lengthAdjust="spacing" textLength="74" x="733.5" y="324.1167">Aproxima&#231;&#227;o</text><text fill="#000000" font-family="sans-serif" font-size="11" lengthAdjust="spacing" textLength="83" x="688" y="305.7144">Dist&#226;ncia &lt; 30</text><text fill="#000000" font-family="sans-serif" font-size="11" lengthAdjust="spacing" textLength="41" x="783" y="299.312">Seguro</text><rect fill="#F1F1F1" height="33.9688" rx="12.5" ry="12.5" style="stroke:#181818;stroke-width:0.5;" width="269" x="595" y="346.7109"/><text fill="#000000" font-family="sans-serif" font-size="12" lengthAdjust="spacing" textLength="245" x="609" y="367.8496">"Parece que algo est&#225; se aproximando!"</text><rect fill="#F1F1F1" height="33.9688" rx="12.5" ry="12.5" style="stroke:#181818;stroke-width:0.5;" width="353" x="884" y="343.3086"/><text fill="#000000" font-family="sans-serif" font-size="12" lengthAdjust="spacing" textLength="333" x="894" y="364.4473">"Dist&#226;ncia segura. Nenhum objeto pr&#243;ximo detectado!"</text><polygon fill="#F1F1F1" points="485.5,406.6797,497.5,418.6797,485.5,430.6797,473.5,418.6797,485.5,406.6797" style="stroke:#181818;stroke-width:0.5;"/><rect fill="#F1F1F1" height="33.9688" rx="12.5" ry="12.5" style="stroke:#181818;stroke-width:0.5;" width="194" x="388.5" y="450.6797"/><text fill="#000000" font-family="sans-serif" font-size="12" lengthAdjust="spacing" textLength="174" x="398.5" y="471.8184">Aguardar intervalo de tempo</text><polygon fill="#F1F1F1" points="485.5,103.9688,497.5,115.9688,485.5,127.9688,473.5,115.9688,485.5,103.9688" style="stroke:#181818;stroke-width:0.5;"/><polygon fill="#F1F1F1" points="433.5,504.6484,537.5,504.6484,549.5,516.6484,537.5,528.6484,433.5,528.6484,421.5,516.6484,433.5,504.6484" style="stroke:#181818;stroke-width:0.5;"/><text fill="#000000" font-family="sans-serif" font-size="11" lengthAdjust="spacing" textLength="104" x="433.5" y="520.4565">Proxima medi&#231;&#227;o?</text><ellipse cx="485.5" cy="559.6484" fill="none" rx="11" ry="11" style="stroke:#222222;stroke-width:1.0;"/><ellipse cx="485.5" cy="559.6484" fill="#222222" rx="6" ry="6" style="stroke:#111111;stroke-width:1.0;"/><line style="stroke:#181818;stroke-width:1.0;" x1="485.5" x2="485.5" y1="30" y2="50"/><polygon fill="#181818" points="481.5,40,485.5,50,489.5,40,485.5,44" style="stroke:#181818;stroke-width:1.0;"/><line style="stroke:#181818;stroke-width:1.0;" x1="470.5" x2="470.5" y1="313.9063" y2="346.7109"/><polygon fill="#181818" points="466.5,336.7109,470.5,346.7109,474.5,336.7109,470.5,340.7109" style="stroke:#181818;stroke-width:1.0;"/><line style="stroke:#181818;stroke-width:1.0;" x1="470.5" x2="470.5" y1="380.6797" y2="400.6797"/><polygon fill="#181818" points="466.5,390.6797,470.5,400.6797,474.5,390.6797,470.5,394.6797" style="stroke:#181818;stroke-width:1.0;"/><line style="stroke:#181818;stroke-width:1.0;" x1="729.5" x2="729.5" y1="313.9063" y2="346.7109"/><polygon fill="#181818" points="725.5,336.7109,729.5,346.7109,733.5,336.7109,729.5,340.7109" style="stroke:#181818;stroke-width:1.0;"/><line style="stroke:#181818;stroke-width:1.0;" x1="729.5" x2="729.5" y1="380.6797" y2="400.6797"/><polygon fill="#181818" points="725.5,390.6797,729.5,400.6797,733.5,390.6797,729.5,394.6797" style="stroke:#181818;stroke-width:1.0;"/><line style="stroke:#181818;stroke-width:1.0;" x1="524" x2="676" y1="301.9063" y2="301.9063"/><polygon fill="#181818" points="666,297.9063,676,301.9063,666,305.9063,670,301.9063" style="stroke:#181818;stroke-width:1.0;"/><line style="stroke:#181818;stroke-width:1.0;" x1="793.5" x2="793.5" y1="269.9063" y2="274.9063"/><line style="stroke:#181818;stroke-width:1.0;" x1="793.5" x2="470.5" y1="274.9063" y2="274.9063"/><line style="stroke:#181818;stroke-width:1.0;" x1="470.5" x2="470.5" y1="274.9063" y2="289.9063"/><polygon fill="#181818" points="466.5,279.9063,470.5,289.9063,474.5,279.9063,470.5,283.9063" style="stroke:#181818;stroke-width:1.0;"/><line style="stroke:#181818;stroke-width:1.0;" x1="783" x2="1060.5" y1="301.9063" y2="301.9063"/><line style="stroke:#181818;stroke-width:1.0;" x1="1060.5" x2="1060.5" y1="301.9063" y2="343.3086"/><polygon fill="#181818" points="1056.5,333.3086,1060.5,343.3086,1064.5,333.3086,1060.5,337.3086" style="stroke:#181818;stroke-width:1.0;"/><line style="stroke:#181818;stroke-width:1.0;" x1="1060.5" x2="1060.5" y1="377.2773" y2="400.6797"/><polygon fill="#181818" points="1056.5,390.6797,1060.5,400.6797,1064.5,390.6797,1060.5,394.6797" style="stroke:#181818;stroke-width:1.0;"/><line style="stroke:#181818;stroke-width:1.0;" x1="470.5" x2="1060.5" y1="400.6797" y2="400.6797"/><line style="stroke:#181818;stroke-width:1.0;" x1="431" x2="179.5" y1="213.9375" y2="213.9375"/><line style="stroke:#181818;stroke-width:1.0;" x1="179.5" x2="179.5" y1="213.9375" y2="235.9375"/><polygon fill="#181818" points="175.5,225.9375,179.5,235.9375,183.5,225.9375,179.5,229.9375" style="stroke:#181818;stroke-width:1.0;"/><line style="stroke:#181818;stroke-width:1.0;" x1="540" x2="793.5" y1="213.9375" y2="213.9375"/><line style="stroke:#181818;stroke-width:1.0;" x1="793.5" x2="793.5" y1="213.9375" y2="235.9375"/><polygon fill="#181818" points="789.5,225.9375,793.5,235.9375,797.5,225.9375,793.5,229.9375" style="stroke:#181818;stroke-width:1.0;"/><line style="stroke:#181818;stroke-width:1.0;" x1="179.5" x2="179.5" y1="269.9063" y2="418.6797"/><line style="stroke:#181818;stroke-width:1.0;" x1="179.5" x2="473.5" y1="418.6797" y2="418.6797"/><polygon fill="#181818" points="463.5,414.6797,473.5,418.6797,463.5,422.6797,467.5,418.6797" style="stroke:#181818;stroke-width:1.0;"/><line style="stroke:#181818;stroke-width:1.0;" x1="793.5" x2="793.5" y1="400.6797" y2="418.6797"/><line style="stroke:#181818;stroke-width:1.0;" x1="793.5" x2="497.5" y1="418.6797" y2="418.6797"/><polygon fill="#181818" points="507.5,414.6797,497.5,418.6797,507.5,422.6797,503.5,418.6797" style="stroke:#181818;stroke-width:1.0;"/><line style="stroke:#181818;stroke-width:1.0;" x1="485.5" x2="485.5" y1="181.9375" y2="201.9375"/><polygon fill="#181818" points="481.5,191.9375,485.5,201.9375,489.5,191.9375,485.5,195.9375" style="stroke:#181818;stroke-width:1.0;"/><line style="stroke:#181818;stroke-width:1.0;" x1="485.5" x2="485.5" y1="430.6797" y2="450.6797"/><polygon fill="#181818" points="481.5,440.6797,485.5,450.6797,489.5,440.6797,485.5,444.6797" style="stroke:#181818;stroke-width:1.0;"/><line style="stroke:#181818;stroke-width:1.0;" x1="485.5" x2="485.5" y1="127.9688" y2="147.9688"/><polygon fill="#181818" points="481.5,137.9688,485.5,147.9688,489.5,137.9688,485.5,141.9688" style="stroke:#181818;stroke-width:1.0;"/><line style="stroke:#181818;stroke-width:1.0;" x1="549.5" x2="1251" y1="516.6484" y2="516.6484"/><polygon fill="#181818" points="1247,333.8086,1251,323.8086,1255,333.8086,1251,329.8086" style="stroke:#181818;stroke-width:1.0;"/><line style="stroke:#181818;stroke-width:1.0;" x1="1251" x2="1251" y1="115.9688" y2="516.6484"/><line style="stroke:#181818;stroke-width:1.0;" x1="1251" x2="497.5" y1="115.9688" y2="115.9688"/><polygon fill="#181818" points="507.5,111.9688,497.5,115.9688,507.5,119.9688,503.5,115.9688" style="stroke:#181818;stroke-width:1.0;"/><line style="stroke:#181818;stroke-width:1.0;" x1="485.5" x2="485.5" y1="484.6484" y2="504.6484"/><polygon fill="#181818" points="481.5,494.6484,485.5,504.6484,489.5,494.6484,485.5,498.6484" style="stroke:#181818;stroke-width:1.0;"/><line style="stroke:#181818;stroke-width:1.0;" x1="485.5" x2="485.5" y1="83.9688" y2="103.9688"/><polygon fill="#181818" points="481.5,93.9688,485.5,103.9688,489.5,93.9688,485.5,97.9688" style="stroke:#181818;stroke-width:1.0;"/><line style="stroke:#181818;stroke-width:1.0;" x1="485.5" x2="485.5" y1="528.6484" y2="548.6484"/><polygon fill="#181818" points="481.5,538.6484,485.5,548.6484,489.5,538.6484,485.5,542.6484" style="stroke:#181818;stroke-width:1.0;"/><!--SRC=[PP51JiCm44NtESKqgrQL8X2xb0fLmA8RgE04Gpnj1yLscDY0k0smu00S8HV3Rj8ag1jR7l__vckcTYWkoTU62yQIFr2WiDg79pO_pRU5cYHyB1AXYj0b0Fa3TK9DYbkHGb1Sk-RB1CeYY7WBqvk-0iibdCt0xSd0z5R4pe8aaDQw4jOiaCOY61oG6Opivj2371KE5MPfx41bJIqb7PGvf30VE-UXKEY3uIJK9PpteJRI_Bwpxe95wBLdXSfEuFxfcPm5xJcSLQURTCYOuWHxqMDNbTWWRqVPio7Te511yE89iDnPeE3-3AC6x0n6_Mi1qqVQUHd56pMiunTcS4TcxpNODkynQJ-t0MWKRvFXpbSxZwB2GjauabSiemaSwSeUzmvlUoufpkaGRzZJrIofdQt-0000]--></g></svg>