<?xml version="1.0" encoding="us-ascii" standalone="no"?><svg xmlns="http://www.w3.org/2000/svg" xmlns:xlink="http://www.w3.org/1999/xlink" contentStyleType="text/css" height="812px" preserveAspectRatio="none" style="width:407px;height:812px;background:#FFFFFF;" version="1.1" viewBox="0 0 407 812" width="407px" zoomAndPan="magnify"><defs/><g><ellipse cx="191.5" cy="20" fill="#222222" rx="10" ry="10" style="stroke:#222222;stroke-width:1.0;"/><rect fill="#F1F1F1" height="33.9688" rx="12.5" ry="12.5" style="stroke:#181818;stroke-width:0.5;" width="65" x="159" y="50"/><text fill="#000000" font-family="sans-serif" font-size="12" lengthAdjust="spacing" textLength="45" x="169" y="71.1387">Setup()</text><rect fill="#F1F1F1" height="33.9688" rx="12.5" ry="12.5" style="stroke:#181818;stroke-width:0.5;" width="78" x="152.5" y="147.9688"/><text fill="#000000" font-family="sans-serif" font-size="12" lengthAdjust="spacing" textLength="58" x="162.5" y="169.1074">Ler Bot&#227;o</text><polygon fill="#F1F1F1" points="144.5,250.3398,238.5,250.3398,250.5,262.3398,238.5,274.3398,144.5,274.3398,132.5,262.3398,144.5,250.3398" style="stroke:#181818;stroke-width:0.5;"/><text fill="#000000" font-family="sans-serif" font-size="11" lengthAdjust="spacing" textLength="94" x="144.5" y="266.1479">Sistema Ligado?</text><text fill="#000000" font-family="sans-serif" font-size="11" lengthAdjust="spacing" textLength="22" x="110.5" y="259.7456">Sim</text><text fill="#000000" font-family="sans-serif" font-size="11" lengthAdjust="spacing" textLength="22" x="250.5" y="259.7456">N&#227;o</text><rect fill="#F1F1F1" height="33.9688" rx="12.5" ry="12.5" style="stroke:#181818;stroke-width:0.5;" width="178" x="11" y="284.3398"/><text fill="#000000" font-family="sans-serif" font-size="12" lengthAdjust="spacing" textLength="158" x="21" y="305.4785">Medir e Verificar Dist&#226;ncia</text><rect fill="#F1F1F1" height="33.9688" rx="12.5" ry="12.5" style="stroke:#181818;stroke-width:0.5;" width="128" x="36" y="386.7109"/><text fill="#000000" font-family="sans-serif" font-size="12" lengthAdjust="spacing" textLength="108" x="46" y="407.8496">Ligar Servo Motor</text><rect fill="#F1F1F1" height="33.9688" rx="12.5" ry="12.5" style="stroke:#181818;stroke-width:0.5;" width="98" x="51" y="455.6797"/><text fill="#000000" font-family="sans-serif" font-size="12" lengthAdjust="spacing" textLength="78" x="61" y="476.8184">Aguardar 5 s</text><rect fill="#F1F1F1" height="33.9688" rx="12.5" ry="12.5" style="stroke:#181818;stroke-width:0.5;" width="149" x="25.5" y="509.6484"/><text fill="#000000" font-family="sans-serif" font-size="12" lengthAdjust="spacing" textLength="129" x="35.5" y="530.7871">Desligar Servo Motor</text><polygon fill="#F1F1F1" points="45,338.3086,155,338.3086,167,350.3086,155,362.3086,45,362.3086,33,350.3086,45,338.3086" style="stroke:#181818;stroke-width:0.5;"/><text fill="#000000" font-family="sans-serif" font-size="11" lengthAdjust="spacing" textLength="22" x="104" y="372.519">Sim</text><text fill="#000000" font-family="sans-serif" font-size="11" lengthAdjust="spacing" textLength="110" x="45" y="354.1167">Dist&#226;ncia &lt; 10 cm?</text><polygon fill="#F1F1F1" points="100,563.6172,112,575.6172,100,587.6172,88,575.6172,100,563.6172" style="stroke:#181818;stroke-width:0.5;"/><rect fill="#F1F1F1" height="33.9688" rx="12.5" ry="12.5" style="stroke:#181818;stroke-width:0.5;" width="133" x="216.5" y="284.3398"/><text fill="#000000" font-family="sans-serif" font-size="12" lengthAdjust="spacing" textLength="113" x="226.5" y="305.4785">Sistema Desligado</text><polygon fill="#F1F1F1" points="191.5,593.6172,203.5,605.6172,191.5,617.6172,179.5,605.6172,191.5,593.6172" style="stroke:#181818;stroke-width:0.5;"/><polygon fill="#F1F1F1" points="139,201.9375,244,201.9375,256,213.9375,244,225.9375,139,225.9375,127,213.9375,139,201.9375" style="stroke:#181818;stroke-width:0.5;"/><text fill="#000000" font-family="sans-serif" font-size="11" lengthAdjust="spacing" textLength="22" x="195.5" y="236.1479">Sim</text><text fill="#000000" font-family="sans-serif" font-size="11" lengthAdjust="spacing" textLength="105" x="139" y="217.7456">Bot&#227;o Pressionado</text><polygon fill="#F1F1F1" points="191.5,637.6172,203.5,649.6172,191.5,661.6172,179.5,649.6172,191.5,637.6172" style="stroke:#181818;stroke-width:0.5;"/><rect fill="#F1F1F1" height="33.9688" rx="12.5" ry="12.5" style="stroke:#181818;stroke-width:0.5;" width="97" x="143" y="681.6172"/><text fill="#000000" font-family="sans-serif" font-size="12" lengthAdjust="spacing" textLength="77" x="153" y="702.7559">Aguardar 1 s</text><polygon fill="#F1F1F1" points="191.5,103.9688,203.5,115.9688,191.5,127.9688,179.5,115.9688,191.5,103.9688" style="stroke:#181818;stroke-width:0.5;"/><polygon fill="#F1F1F1" points="179.5,735.5859,203.5,735.5859,215.5,747.5859,203.5,759.5859,179.5,759.5859,167.5,747.5859,179.5,735.5859" style="stroke:#181818;stroke-width:0.5;"/><text fill="#000000" font-family="sans-serif" font-size="11" lengthAdjust="spacing" textLength="23" x="180" y="751.394">true</text><ellipse cx="191.5" cy="790.5859" fill="none" rx="11" ry="11" style="stroke:#222222;stroke-width:1.0;"/><ellipse cx="191.5" cy="790.5859" fill="#222222" rx="6" ry="6" style="stroke:#111111;stroke-width:1.0;"/><line style="stroke:#181818;stroke-width:1.0;" x1="191.5" x2="191.5" y1="30" y2="50"/><polygon fill="#181818" points="187.5,40,191.5,50,195.5,40,191.5,44" style="stroke:#181818;stroke-width:1.0;"/><line style="stroke:#181818;stroke-width:1.0;" x1="100" x2="100" y1="420.6797" y2="455.6797"/><polygon fill="#181818" points="96,445.6797,100,455.6797,104,445.6797,100,449.6797" style="stroke:#181818;stroke-width:1.0;"/><line style="stroke:#181818;stroke-width:1.0;" x1="100" x2="100" y1="489.6484" y2="509.6484"/><polygon fill="#181818" points="96,499.6484,100,509.6484,104,499.6484,100,503.6484" style="stroke:#181818;stroke-width:1.0;"/><line style="stroke:#181818;stroke-width:1.0;" x1="100" x2="100" y1="362.3086" y2="386.7109"/><polygon fill="#181818" points="96,376.7109,100,386.7109,104,376.7109,100,380.7109" style="stroke:#181818;stroke-width:1.0;"/><line style="stroke:#181818;stroke-width:1.0;" x1="167" x2="184.5" y1="350.3086" y2="350.3086"/><polygon fill="#181818" points="180.5,462.6641,184.5,472.6641,188.5,462.6641,184.5,466.6641" style="stroke:#181818;stroke-width:1.0;"/><line style="stroke:#181818;stroke-width:1.0;" x1="184.5" x2="184.5" y1="350.3086" y2="575.6172"/><line style="stroke:#181818;stroke-width:1.0;" x1="184.5" x2="112" y1="575.6172" y2="575.6172"/><polygon fill="#181818" points="122,571.6172,112,575.6172,122,579.6172,118,575.6172" style="stroke:#181818;stroke-width:1.0;"/><line style="stroke:#181818;stroke-width:1.0;" x1="100" x2="100" y1="543.6172" y2="563.6172"/><polygon fill="#181818" points="96,553.6172,100,563.6172,104,553.6172,100,557.6172" style="stroke:#181818;stroke-width:1.0;"/><line style="stroke:#181818;stroke-width:1.0;" x1="100" x2="100" y1="318.3086" y2="338.3086"/><polygon fill="#181818" points="96,328.3086,100,338.3086,104,328.3086,100,332.3086" style="stroke:#181818;stroke-width:1.0;"/><line style="stroke:#181818;stroke-width:1.0;" x1="132.5" x2="100" y1="262.3398" y2="262.3398"/><line style="stroke:#181818;stroke-width:1.0;" x1="100" x2="100" y1="262.3398" y2="284.3398"/><polygon fill="#181818" points="96,274.3398,100,284.3398,104,274.3398,100,278.3398" style="stroke:#181818;stroke-width:1.0;"/><line style="stroke:#181818;stroke-width:1.0;" x1="250.5" x2="283" y1="262.3398" y2="262.3398"/><line style="stroke:#181818;stroke-width:1.0;" x1="283" x2="283" y1="262.3398" y2="284.3398"/><polygon fill="#181818" points="279,274.3398,283,284.3398,287,274.3398,283,278.3398" style="stroke:#181818;stroke-width:1.0;"/><line style="stroke:#181818;stroke-width:1.0;" x1="100" x2="100" y1="587.6172" y2="605.6172"/><line style="stroke:#181818;stroke-width:1.0;" x1="100" x2="179.5" y1="605.6172" y2="605.6172"/><polygon fill="#181818" points="169.5,601.6172,179.5,605.6172,169.5,609.6172,173.5,605.6172" style="stroke:#181818;stroke-width:1.0;"/><line style="stroke:#181818;stroke-width:1.0;" x1="283" x2="283" y1="318.3086" y2="605.6172"/><line style="stroke:#181818;stroke-width:1.0;" x1="283" x2="203.5" y1="605.6172" y2="605.6172"/><polygon fill="#181818" points="213.5,601.6172,203.5,605.6172,213.5,609.6172,209.5,605.6172" style="stroke:#181818;stroke-width:1.0;"/><line style="stroke:#181818;stroke-width:1.0;" x1="191.5" x2="191.5" y1="225.9375" y2="250.3398"/><polygon fill="#181818" points="187.5,240.3398,191.5,250.3398,195.5,240.3398,191.5,244.3398" style="stroke:#181818;stroke-width:1.0;"/><line style="stroke:#181818;stroke-width:1.0;" x1="256" x2="363.5" y1="213.9375" y2="213.9375"/><polygon fill="#181818" points="359.5,426.1797,363.5,436.1797,367.5,426.1797,363.5,430.1797" style="stroke:#181818;stroke-width:1.0;"/><line style="stroke:#181818;stroke-width:1.0;" x1="363.5" x2="363.5" y1="213.9375" y2="649.6172"/><line style="stroke:#181818;stroke-width:1.0;" x1="363.5" x2="203.5" y1="649.6172" y2="649.6172"/><polygon fill="#181818" points="213.5,645.6172,203.5,649.6172,213.5,653.6172,209.5,649.6172" style="stroke:#181818;stroke-width:1.0;"/><line style="stroke:#181818;stroke-width:1.0;" x1="191.5" x2="191.5" y1="617.6172" y2="637.6172"/><polygon fill="#181818" points="187.5,627.6172,191.5,637.6172,195.5,627.6172,191.5,631.6172" style="stroke:#181818;stroke-width:1.0;"/><line style="stroke:#181818;stroke-width:1.0;" x1="191.5" x2="191.5" y1="181.9375" y2="201.9375"/><polygon fill="#181818" points="187.5,191.9375,191.5,201.9375,195.5,191.9375,191.5,195.9375" style="stroke:#181818;stroke-width:1.0;"/><line style="stroke:#181818;stroke-width:1.0;" x1="191.5" x2="191.5" y1="661.6172" y2="681.6172"/><polygon fill="#181818" points="187.5,671.6172,191.5,681.6172,195.5,671.6172,191.5,675.6172" style="stroke:#181818;stroke-width:1.0;"/><line style="stroke:#181818;stroke-width:1.0;" x1="191.5" x2="191.5" y1="127.9688" y2="147.9688"/><polygon fill="#181818" points="187.5,137.9688,191.5,147.9688,195.5,137.9688,191.5,141.9688" style="stroke:#181818;stroke-width:1.0;"/><line style="stroke:#181818;stroke-width:1.0;" x1="215.5" x2="381.5" y1="747.5859" y2="747.5859"/><polygon fill="#181818" points="377.5,446.1797,381.5,436.1797,385.5,446.1797,381.5,442.1797" style="stroke:#181818;stroke-width:1.0;"/><line style="stroke:#181818;stroke-width:1.0;" x1="381.5" x2="381.5" y1="115.9688" y2="747.5859"/><line style="stroke:#181818;stroke-width:1.0;" x1="381.5" x2="203.5" y1="115.9688" y2="115.9688"/><polygon fill="#181818" points="213.5,111.9688,203.5,115.9688,213.5,119.9688,209.5,115.9688" style="stroke:#181818;stroke-width:1.0;"/><line style="stroke:#181818;stroke-width:1.0;" x1="191.5" x2="191.5" y1="715.5859" y2="735.5859"/><polygon fill="#181818" points="187.5,725.5859,191.5,735.5859,195.5,725.5859,191.5,729.5859" style="stroke:#181818;stroke-width:1.0;"/><line style="stroke:#181818;stroke-width:1.0;" x1="191.5" x2="191.5" y1="83.9688" y2="103.9688"/><polygon fill="#181818" points="187.5,93.9688,191.5,103.9688,195.5,93.9688,191.5,97.9688" style="stroke:#181818;stroke-width:1.0;"/><line style="stroke:#181818;stroke-width:1.0;" x1="191.5" x2="191.5" y1="759.5859" y2="779.5859"/><polygon fill="#181818" points="187.5,769.5859,191.5,779.5859,195.5,769.5859,191.5,773.5859" style="stroke:#181818;stroke-width:1.0;"/><!--SRC=[TL1BQiD03DtFATxItZMBRk90QSaoAGL3zeD7JWIsPJHoSf_sABbOnd5S5zgkz7iVIT6ycdFhacpeixnmIZrvSy1wHuetiUkN5Ada6jbKuKCfHfRE1ybX9-gGbTpc2JJ1Iev6hSUEZmdoyWkJjFSKM44ua7BDbLTi4-dwsLNiYmTeb5gws63rXAhzIsvSDdafIjApO2ycMYopr-FWDQJnC-AFzfPYyn-Bki3rFQSc4hBtTFVtylDz3u4W4slcp77nNOs-qsDnEN6J14q7ofsB9lqD]--></g></svg>