<?xml version="1.0" encoding="us-ascii" standalone="no"?><svg xmlns="http://www.w3.org/2000/svg" xmlns:xlink="http://www.w3.org/1999/xlink" contentStyleType="text/css" height="382px" preserveAspectRatio="none" style="width:517px;height:382px;background:#FFFFFF;" version="1.1" viewBox="0 0 517 382" width="517px" zoomAndPan="magnify"><defs/><g><!--class NewPing--><g id="elem_NewPing"><rect codeLine="1" fill="#F1F1F1" height="80.5938" id="NewPing" rx="2.5" ry="2.5" style="stroke:#181818;stroke-width:0.5;" width="327" x="7" y="295"/><ellipse cx="135.75" cy="311" fill="#ADD1B2" rx="11" ry="11" style="stroke:#181818;stroke-width:1.0;"/><path d="M138.0938,306.6719 C137.1563,306.2344 136.5625,306.0938 135.6875,306.0938 C133.0625,306.0938 131.0625,308.1719 131.0625,310.8906 L131.0625,312.0156 C131.0625,314.5938 133.1719,316.4844 136.0625,316.4844 C137.2813,316.4844 138.4375,316.1875 139.1875,315.6406 C139.7656,315.2344 140.0938,314.7813 140.0938,314.3906 C140.0938,313.9375 139.7031,313.5469 139.2344,313.5469 C139.0156,313.5469 138.8125,313.625 138.625,313.8125 C138.1719,314.2969 138.1719,314.2969 137.9844,314.3906 C137.5625,314.6563 136.875,314.7813 136.1094,314.7813 C134.0625,314.7813 132.7656,313.6875 132.7656,311.9844 L132.7656,310.8906 C132.7656,309.1094 134.0156,307.7969 135.75,307.7969 C136.3281,307.7969 136.9375,307.9531 137.4063,308.2031 C137.8906,308.4844 138.0625,308.7031 138.1563,309.1094 C138.2188,309.5156 138.25,309.6406 138.3906,309.7656 C138.5313,309.9063 138.7656,310.0156 138.9844,310.0156 C139.25,310.0156 139.5156,309.875 139.6875,309.6563 C139.7969,309.5 139.8281,309.3125 139.8281,308.8906 L139.8281,307.4688 C139.8281,307.0313 139.8125,306.9063 139.7188,306.75 C139.5625,306.4844 139.2813,306.3438 138.9844,306.3438 C138.6875,306.3438 138.4844,306.4375 138.2656,306.75 L138.0938,306.6719 Z " fill="#000000"/><text fill="#000000" font-family="sans-serif" font-size="14" lengthAdjust="spacing" textLength="61" x="156.25" y="315.8467">NewPing</text><line style="stroke:#181818;stroke-width:0.5;" x1="8" x2="333" y1="327" y2="327"/><line style="stroke:#181818;stroke-width:0.5;" x1="8" x2="333" y1="335" y2="335"/><ellipse cx="18" cy="348.6484" fill="#84BE84" rx="3" ry="3" style="stroke:#038048;stroke-width:1.0;"/><text fill="#000000" font-family="sans-serif" font-size="14" lengthAdjust="spacing" textLength="301" x="27" y="351.9951">NewPing(TRIGGER_PIN: int, ECHO_PIN: int)</text><ellipse cx="18" cy="364.9453" fill="#84BE84" rx="3" ry="3" style="stroke:#038048;stroke-width:1.0;"/><text fill="#000000" font-family="sans-serif" font-size="14" lengthAdjust="spacing" textLength="163" x="27" y="368.292">unsigned int ping_cm()</text></g><!--class Servo--><g id="elem_Servo"><rect codeLine="6" fill="#F1F1F1" height="80.5938" id="Servo" rx="2.5" ry="2.5" style="stroke:#181818;stroke-width:0.5;" width="141" x="369" y="295"/><ellipse cx="414.75" cy="311" fill="#ADD1B2" rx="11" ry="11" style="stroke:#181818;stroke-width:1.0;"/><path d="M417.0938,306.6719 C416.1563,306.2344 415.5625,306.0938 414.6875,306.0938 C412.0625,306.0938 410.0625,308.1719 410.0625,310.8906 L410.0625,312.0156 C410.0625,314.5938 412.1719,316.4844 415.0625,316.4844 C416.2813,316.4844 417.4375,316.1875 418.1875,315.6406 C418.7656,315.2344 419.0938,314.7813 419.0938,314.3906 C419.0938,313.9375 418.7031,313.5469 418.2344,313.5469 C418.0156,313.5469 417.8125,313.625 417.625,313.8125 C417.1719,314.2969 417.1719,314.2969 416.9844,314.3906 C416.5625,314.6563 415.875,314.7813 415.1094,314.7813 C413.0625,314.7813 411.7656,313.6875 411.7656,311.9844 L411.7656,310.8906 C411.7656,309.1094 413.0156,307.7969 414.75,307.7969 C415.3281,307.7969 415.9375,307.9531 416.4063,308.2031 C416.8906,308.4844 417.0625,308.7031 417.1563,309.1094 C417.2188,309.5156 417.25,309.6406 417.3906,309.7656 C417.5313,309.9063 417.7656,310.0156 417.9844,310.0156 C418.25,310.0156 418.5156,309.875 418.6875,309.6563 C418.7969,309.5 418.8281,309.3125 418.8281,308.8906 L418.8281,307.4688 C418.8281,307.0313 418.8125,306.9063 418.7188,306.75 C418.5625,306.4844 418.2813,306.3438 417.9844,306.3438 C417.6875,306.3438 417.4844,306.4375 417.2656,306.75 L417.0938,306.6719 Z " fill="#000000"/><text fill="#000000" font-family="sans-serif" font-size="14" lengthAdjust="spacing" textLength="41" x="435.25" y="315.8467">Servo</text><line style="stroke:#181818;stroke-width:0.5;" x1="370" x2="509" y1="327" y2="327"/><line style="stroke:#181818;stroke-width:0.5;" x1="370" x2="509" y1="335" y2="335"/><ellipse cx="380" cy="348.6484" fill="#84BE84" rx="3" ry="3" style="stroke:#038048;stroke-width:1.0;"/><text fill="#000000" font-family="sans-serif" font-size="14" lengthAdjust="spacing" textLength="109" x="389" y="351.9951">attach(pin: int)</text><ellipse cx="380" cy="364.9453" fill="#84BE84" rx="3" ry="3" style="stroke:#038048;stroke-width:1.0;"/><text fill="#000000" font-family="sans-serif" font-size="14" lengthAdjust="spacing" textLength="115" x="389" y="368.292">write(angle: int)</text></g><!--class Sistema--><g id="elem_Sistema"><rect codeLine="11" fill="#F1F1F1" height="210.9688" id="Sistema" rx="2.5" ry="2.5" style="stroke:#181818;stroke-width:0.5;" width="274" x="167.5" y="7"/><ellipse cx="271.25" cy="23" fill="#ADD1B2" rx="11" ry="11" style="stroke:#181818;stroke-width:1.0;"/><path d="M273.5938,18.6719 C272.6563,18.2344 272.0625,18.0938 271.1875,18.0938 C268.5625,18.0938 266.5625,20.1719 266.5625,22.8906 L266.5625,24.0156 C266.5625,26.5938 268.6719,28.4844 271.5625,28.4844 C272.7813,28.4844 273.9375,28.1875 274.6875,27.6406 C275.2656,27.2344 275.5938,26.7813 275.5938,26.3906 C275.5938,25.9375 275.2031,25.5469 274.7344,25.5469 C274.5156,25.5469 274.3125,25.625 274.125,25.8125 C273.6719,26.2969 273.6719,26.2969 273.4844,26.3906 C273.0625,26.6563 272.375,26.7813 271.6094,26.7813 C269.5625,26.7813 268.2656,25.6875 268.2656,23.9844 L268.2656,22.8906 C268.2656,21.1094 269.5156,19.7969 271.25,19.7969 C271.8281,19.7969 272.4375,19.9531 272.9063,20.2031 C273.3906,20.4844 273.5625,20.7031 273.6563,21.1094 C273.7188,21.5156 273.75,21.6406 273.8906,21.7656 C274.0313,21.9063 274.2656,22.0156 274.4844,22.0156 C274.75,22.0156 275.0156,21.875 275.1875,21.6563 C275.2969,21.5 275.3281,21.3125 275.3281,20.8906 L275.3281,19.4688 C275.3281,19.0313 275.3125,18.9063 275.2188,18.75 C275.0625,18.4844 274.7813,18.3438 274.4844,18.3438 C274.1875,18.3438 273.9844,18.4375 273.7656,18.75 L273.5938,18.6719 Z " fill="#000000"/><text fill="#000000" font-family="sans-serif" font-size="14" lengthAdjust="spacing" textLength="58" x="291.75" y="27.8467">Sistema</text><line style="stroke:#181818;stroke-width:0.5;" x1="168.5" x2="440.5" y1="39" y2="39"/><rect fill="none" height="6" style="stroke:#C82930;stroke-width:1.0;" width="6" x="175.5" y="49.6484"/><text fill="#000000" font-family="sans-serif" font-size="14" lengthAdjust="spacing" textLength="144" x="187.5" y="55.9951">sistemaLigado: bool</text><rect fill="none" height="6" style="stroke:#C82930;stroke-width:1.0;" width="6" x="175.5" y="65.9453"/><text fill="#000000" font-family="sans-serif" font-size="14" lengthAdjust="spacing" textLength="167" x="187.5" y="72.292">ultimoEstadoBotao: int</text><rect fill="none" height="6" style="stroke:#C82930;stroke-width:1.0;" width="6" x="175.5" y="82.2422"/><text fill="#000000" font-family="sans-serif" font-size="14" lengthAdjust="spacing" textLength="212" x="187.5" y="88.5889">ultimaMedicao: unsigned long</text><rect fill="none" height="6" style="stroke:#C82930;stroke-width:1.0;" width="6" x="175.5" y="98.5391"/><text fill="#000000" font-family="sans-serif" font-size="14" lengthAdjust="spacing" textLength="229" x="187.5" y="104.8857">ultimaAcaoServo: unsigned long</text><rect fill="none" height="6" style="stroke:#C82930;stroke-width:1.0;" width="6" x="175.5" y="114.8359"/><text fill="#000000" font-family="sans-serif" font-size="14" lengthAdjust="spacing" textLength="231" x="187.5" y="121.1826">intervaloMedicao: unsigned long</text><rect fill="none" height="6" style="stroke:#C82930;stroke-width:1.0;" width="6" x="175.5" y="131.1328"/><text fill="#000000" font-family="sans-serif" font-size="14" lengthAdjust="spacing" textLength="248" x="187.5" y="137.4795">intervaloAcaoServo: unsigned long</text><rect fill="none" height="6" style="stroke:#C82930;stroke-width:1.0;" width="6" x="175.5" y="147.4297"/><text fill="#000000" font-family="sans-serif" font-size="14" lengthAdjust="spacing" textLength="109" x="187.5" y="153.7764">sonar: NewPing</text><rect fill="none" height="6" style="stroke:#C82930;stroke-width:1.0;" width="6" x="175.5" y="163.7266"/><text fill="#000000" font-family="sans-serif" font-size="14" lengthAdjust="spacing" textLength="132" x="187.5" y="170.0732">servoMotor: Servo</text><line style="stroke:#181818;stroke-width:0.5;" x1="168.5" x2="440.5" y1="177.375" y2="177.375"/><ellipse cx="178.5" cy="191.0234" fill="#84BE84" rx="3" ry="3" style="stroke:#038048;stroke-width:1.0;"/><text fill="#000000" font-family="sans-serif" font-size="14" lengthAdjust="spacing" textLength="51" x="187.5" y="194.3701">setup()</text><ellipse cx="178.5" cy="207.3203" fill="#84BE84" rx="3" ry="3" style="stroke:#038048;stroke-width:1.0;"/><text fill="#000000" font-family="sans-serif" font-size="14" lengthAdjust="spacing" textLength="42" x="187.5" y="210.667">loop()</text></g><!--reverse link Sistema to NewPing--><g id="link_Sistema_NewPing"><path codeLine="24" d="M234.228,229.396 C219.918,252.997 205.808,276.2684 194.516,294.891 " fill="none" id="Sistema-backto-NewPing" style="stroke:#181818;stroke-width:1.0;"/><polygon fill="none" points="241.032,218.175,234.5005,221.231,234.8093,228.4355,241.3408,225.3795,241.032,218.175" style="stroke:#181818;stroke-width:1.0;"/><text fill="#000000" font-family="sans-serif" font-size="13" lengthAdjust="spacing" textLength="23" x="223.5" y="261.0669">has</text></g><!--reverse link Sistema to Servo--><g id="link_Sistema_Servo"><path codeLine="25" d="M375.296,229.396 C389.713,252.997 403.929,276.2684 415.304,294.891 " fill="none" id="Sistema-backto-Servo" style="stroke:#181818;stroke-width:1.0;"/><polygon fill="none" points="368.442,218.175,368.1563,225.3804,374.6976,228.4155,374.9833,221.21,368.442,218.175" style="stroke:#181818;stroke-width:1.0;"/><text fill="#000000" font-family="sans-serif" font-size="13" lengthAdjust="spacing" textLength="23" x="396.5" y="261.0669">has</text></g><!--SRC=[VL5BQiCm4Dtx55egfBw0TsqmQQ19Gz9zcCf24SWQunatYvAxLvParuKIxTwNuKav8187VJjQRyHt8S9RPoW_JhljjZvTZhj39Qpd9r5lNjzdk4hkmPCrNZSZ9RgGkwXMhefxKQXOVjRz5qxLm0pgAeDjMN7hBMi9tZYTwT-q9TOjv7n92RvP0mrMuXFH9M5mR5kiYGF_WWmOYnOQx7LZrSZF1plqPkbu3dAyzbzFg0iQE7nKD9iUTn5wwAjfzyoDxZqo1Y4cqpQaUUXa7ieXTcdRQHSio_dxAd45-gEaxIF_0m00]--></g></svg>